#!OML:ASF F:\VICON\USERDATA\INSTALL\rory3\rory3.ASF
:FULLY-SPECIFIED
:DEGREES
695
root -4.20164 17.5581 -3.58234 6.64327 5.31774 -0.591204
lowerback 11.5527 1.46914 -3.52448
upperback 3.33964 1.54206 -0.0447292
thorax -3.0716 0.775825 1.72226
lowerneck -22.6122 -3.41753 -12.4054
upperneck 6.12979 -1.6939 5.78267
head 5.59041 -0.683027 3.65332
rclavicle 1.51076e-014 -1.13307e-014
rhumerus -10.407 32.7292 -103.727
rradius 59.9065
rwrist -14.7028
rhand -36.9647 -5.68768
rfingers 7.12502
rthumb -10.0406 -35.4282
lclavicle 1.51076e-014 -1.13307e-014
lhumerus -7.30221 -20.1014 97.7752
lradius 59.912
lwrist 54.8969
lhand -21.8017 40.0805
lfingers 7.12502
lthumb 4.60028 70.0105
rfemur -21.6083 -20.7078 24.425
rtibia 62.0323
rfoot -17.8278 1.47723
rtoes -14.4283
lfemur -29.2616 5.29647 -25.46
ltibia 31.8006
lfoot -5.98226 -10.7356
ltoes -1.69565
696
root -4.18043 17.5598 -3.62285 6.48631 5.06284 -0.557662
lowerback 11.2404 1.5719 -3.52073
upperback 3.35148 1.68912 -0.109878
thorax -2.89454 0.845974 1.63853
lowerneck -22.8025 -3.52214 -12.5605
upperneck 5.96838 -1.77346 5.89971
head 5.57659 -0.709471 3.7065
rclavicle 9.93923e-016 9.54166e-015
rhumerus -9.3667 32.3745 -103.268
rradius 59.3329
rwrist -14.9493
rhand -35.9394 -5.00433
rfingers 7.12502
rthumb -9.05134 -34.7901
lclavicle 9.93923e-016 9.54166e-015
lhumerus -7.00966 -18.7012 97.7102
lradius 60.02
lwrist 52.918
lhand -21.5449 38.7831
lfingers 7.12502
lthumb 4.84819 68.7076
rfemur -20.4616 -20.4266 24.4506
rtibia 61.078
rfoot -17.6746 2.6611
rtoes -15.2697
lfemur -29.06 5.30269 -25.5087
ltibia 31.508
lfoot -5.80309 -10.6338
ltoes -1.35538
697
root -4.16027 17.5562 -3.6641 6.41342 4.819 -0.37864
lowerback 10.9246 1.6768 -3.64694
upperback 3.28569 1.82203 -0.22713
thorax -2.79721 0.911568 1.57592
lowerneck -22.8714 -3.63819 -12.616
upperneck 5.83627 -1.8991 5.89769
head 5.55605 -0.76777 3.69938
rclavicle -3.18055e-014 -1.13307e-014
rhumerus -8.41063 32.0179 -102.907
rradius 58.7341
rwrist -15.1407
rhand -35.2757 -4.1876
rfingers 7.12502
rthumb -8.41083 -34.0001
lclavicle -3.18055e-014 -1.13307e-014
lhumerus -6.66239 -17.5707 97.6031
lradius 59.8475
lwrist 50.0715
lhand -22.1476 39.2456
lfingers 7.12502
lthumb 4.26621 69.1826
rfemur -19.4196 -20.076 24.3444
rtibia 60.0491
rfoot -17.6129 3.55087
rtoes -16.7529
lfemur -28.9317 5.28427 -25.7291
ltibia 31.2514
lfoot -5.65558 -10.5286
ltoes -1.034
698
root -4.13956 17.5539 -3.70981 6.33542 4.63298 -0.271644
lowerback 10.7424 1.73922 -3.66163
upperback 3.15331 1.90467 -0.324302
thorax -2.83687 0.95485 1.47465
lowerneck -22.9245 -3.67458 -12.6198
upperneck 5.72972 -1.93093 5.85031
head 5.53171 -0.783613 3.67996
rclavicle 5.07895e-014 -2.42517e-014
rhumerus -7.64552 31.6882 -102.708
rradius 58.0728
rwrist -14.8569
rhand -34.536 -3.22613
rfingers 7.12502
rthumb -7.69698 -33.0661
lclavicle 5.07895e-014 -2.42517e-014
lhumerus -6.42292 -16.6059 97.4053
lradius 59.645
lwrist 46.8443
lhand -22.701 40.1465
lfingers 7.12502
lthumb 3.73184 70.0935
rfemur -18.3956 -19.7287 24.3222
rtibia 58.9162
rfoot -17.7543 4.58872
rtoes -17.5882
lfemur -28.8373 5.32534 -25.9143
ltibia 31.0056
lfoot -5.37195 -10.4394
ltoes -0.547543
699
root -4.11721 17.5532 -3.75991 6.269 4.433 -0.242919
lowerback 10.5317 1.82023 -3.57758
upperback 3.01198 2.02487 -0.379696
thorax -2.87005 1.01643 1.35731
lowerneck -22.8708 -3.62497 -12.5552
upperneck 5.55422 -1.8661 5.67209
head 5.45797 -0.760856 3.61722
rclavicle -1.40143e-014 4.96962e-015
rhumerus -6.85538 31.5224 -102.38
rradius 57.2928
rwrist -13.9892
rhand -33.8532 -2.82815
rfingers 7.12502
rthumb -7.03791 -32.6911
lclavicle -1.40143e-014 4.96962e-015
lhumerus -6.28799 -15.8745 97.1576
lradius 59.3155
lwrist 43.3208
lhand -22.691 41.2475
lfingers 7.12502
lthumb 3.74147 71.1944
rfemur -17.3624 -19.2397 24.3758
rtibia 57.6669
rfoot -17.8809 5.63405
rtoes -17.8806
lfemur -28.8127 5.45508 -26.0512
ltibia 30.761
lfoot -5.05381 -10.3846
ltoes -0.223516
700
root -4.09402 17.5501 -3.81413 6.13811 4.22597 -0.270898
lowerback 10.4122 1.92121 -3.38931
upperback 2.83964 2.17662 -0.457938
thorax -2.98191 1.09442 1.15081
lowerneck -22.5801 -3.58134 -12.2722
upperneck 5.33124 -1.88758 5.35427
head 5.33815 -0.787739 3.46468
rclavicle 2.83268e-014 -1.55052e-014
rhumerus -6.13792 31.3396 -102.028
rradius 56.4229
rwrist -12.1124
rhand -33.073 -3.425
rfingers 7.12502
rthumb -6.2847 -33.3118
lclavicle 2.83268e-014 -1.55052e-014
lhumerus -6.4053 -15.4001 96.8288
lradius 58.8914
lwrist 39.391
lhand -22.2852 41.7411
lfingers 7.12502
lthumb 4.1334 71.6807
rfemur -16.2832 -18.6832 24.4712
rtibia 56.2801
rfoot -17.6664 6.00291
rtoes -18.267
lfemur -28.7633 5.48477 -26.0741
ltibia 30.516
lfoot -4.72818 -10.2809
ltoes 0.275449
701
root -4.07037 17.5517 -3.86169 6.03661 3.93653 -0.226978
lowerback 10.1474 1.98716 -3.33788
upperback 2.73507 2.27619 -0.515097
thorax -2.94526 1.14428 1.05608
lowerneck -22.3706 -3.52543 -12.1309
upperneck 5.04698 -1.85803 5.18602
head 5.20967 -0.778521 3.38965
rclavicle -3.91606e-014 8.54774e-015
rhumerus -5.2911 31.394 -101.577
rradius 55.4714
rwrist -9.75051
rhand -31.9066 -4.48578
rfingers 7.12502
rthumb -5.1585 -34.403
lclavicle -3.91606e-014 8.54774e-015
lhumerus -6.46023 -15.0415 96.4249
lradius 58.453
lwrist 36.1546
lhand -23.0328 41.6918
lfingers 7.12502
lthumb 3.41146 71.6443
rfemur -15.2157 -18.0285 24.4602
rtibia 54.768
rfoot -17.4429 6.30107
rtoes -18.6786
lfemur -28.7212 5.55158 -26.198
ltibia 30.2564
lfoot -4.57375 -10.1895
ltoes -0.189133
702
root -4.04502 17.5574 -3.90086 6.04602 3.58533 0.0211414
lowerback 9.67501 2.06732 -3.48636
upperback 2.64398 2.38329 -0.602322
thorax -2.78633 1.19714 1.04933
lowerneck -22.1335 -3.45419 -12.0455
upperneck 4.71386 -1.79514 5.0119
head 5.05934 -0.753515 3.32527
rclavicle -1.58034e-014 -1.23246e-014
rhumerus -4.48271 31.6884 -101.031
rradius 54.6044
rwrist -7.94042
rhand -31.0497 -5.04177
rfingers 7.12502
rthumb -4.33112 -34.9775
lclavicle -1.58034e-014 -1.23246e-014
lhumerus -6.41283 -14.9377 95.9686
lradius 57.9175
lwrist 33.6421
lhand -24.1948 41.5813
lfingers 7.12502
lthumb 2.28927 71.5488
rfemur -14.1726 -17.1842 24.1996
rtibia 53.1572
rfoot -17.3696 6.75043
rtoes -18.0661
lfemur -28.7618 5.71671 -26.6065
ltibia 30.0019
lfoot -4.615 -10.1778
ltoes -1.24528
703
root -4.01824 17.5573 -3.94857 6.04328 3.30835 0.252205
lowerback 9.31805 2.12617 -3.53457
upperback 2.57386 2.46861 -0.685653
thorax -2.66427 1.239 0.990791
lowerneck -22.1365 -3.45681 -11.9734
upperneck 4.6178 -1.79622 4.82379
head 5.02593 -0.764052 3.25194
rclavicle 1.6201e-014 -7.55382e-015
rhumerus -3.72434 32.1221 -100.424
rradius 53.7773
rwrist -6.49683
rhand -30.9001 -4.87467
rfingers 7.12502
rthumb -4.18665 -34.8133
lclavicle 1.6201e-014 -7.55382e-015
lhumerus -6.34734 -15.0376 95.3811
lradius 57.2985
lwrist 31.1711
lhand -24.7656 41.3043
lfingers 7.12502
lthumb 1.73795 71.2769
rfemur -13.1864 -16.3052 23.9981
rtibia 51.4882
rfoot -17.3017 6.78104
rtoes -17.701
lfemur -28.821 5.86653 -27.0107
ltibia 29.7749
lfoot -4.49506 -10.1515
ltoes -1.75931
704
root -3.9927 17.5464 -4.00764 6.02614 3.055 0.393545
lowerback 9.12932 2.13465 -3.47756
upperback 2.4505 2.48918 -0.73568
thorax -2.68442 1.25063 0.908788
lowerneck -22.2225 -3.46019 -12.0454
upperneck 4.66637 -1.76496 4.77976
head 5.05146 -0.753917 3.25208
rclavicle -4.17448e-015 2.62396e-014
rhumerus -3.10029 32.7695 -99.8355
rradius 52.9014
rwrist -4.98265
rhand -30.882 -4.56354
rfingers 7.12502
rthumb -4.16917 -34.5025
lclavicle -4.17448e-015 2.62396e-014
lhumerus -6.46338 -15.1279 94.6945
lradius 56.7021
lwrist 28.5898
lhand -25.1669 41.1916
lfingers 7.12502
lthumb 1.3504 71.167
rfemur -12.2639 -15.3997 23.9255
rtibia 49.784
rfoot -17.1387 7.09015
rtoes -16.2844
lfemur -28.9168 5.95804 -27.2928
ltibia 29.5699
lfoot -4.25207 -10.0368
ltoes -1.79091
705
root -3.96785 17.5323 -4.06806 5.99549 2.73902 0.481939
lowerback 9.00289 2.16816 -3.40409
upperback 2.29257 2.54124 -0.763107
thorax -2.77628 1.27889 0.834245
lowerneck -22.2402 -3.42049 -12.0717
upperneck 4.69349 -1.69585 4.7143
head 5.05637 -0.726227 3.24223
rclavicle 1.0138e-014 -1.98785e-015
rhumerus -2.49522 33.476 -99.206
rradius 51.9518
rwrist -3.29112
rhand -30.606 -4.31881
rfingers 7.12502
rthumb -3.90264 -34.2628
lclavicle 1.0138e-014 -1.98785e-015
lhumerus -6.69936 -15.1966 94.0214
lradius 56.0226
lwrist 26.0717
lhand -25.691 40.3984
lfingers 7.12502
lthumb 0.84418 70.3765
rfemur -11.3677 -14.2818 23.9049
rtibia 48.0708
rfoot -16.9185 7.49877
rtoes -13.0325
lfemur -29.0162 6.09726 -27.5003
ltibia 29.3908
lfoot -3.99235 -9.92331
ltoes -1.68305
706
root -3.94219 17.5278 -4.12514 5.93119 2.35557 0.587199
lowerback 8.82308 2.22242 -3.34772
upperback 2.24218 2.62424 -0.788229
thorax -2.72883 1.31981 0.772829
lowerneck -22.3174 -3.37663 -12.011
upperneck 4.59377 -1.62709 4.56507
head 5.02776 -0.699056 3.19084
rclavicle 1.37658e-014 1.78906e-015
rhumerus -1.90471 34.0424 -98.5357
rradius 51.206
rwrist -1.39183
rhand -30.1497 -3.96083
rfingers 7.12502
rthumb -3.46199 -33.9125
lclavicle 1.37658e-014 1.78906e-015
lhumerus -6.86968 -15.4015 93.285
lradius 55.2286
lwrist 23.6984
lhand -26.5986 38.3726
lfingers 7.12502
lthumb -0.0324099 68.3524
rfemur -10.5014 -13.0516 23.8276
rtibia 46.3802
rfoot -17.0276 7.63679
rtoes -10.0077
lfemur -29.0412 6.3542 -27.7263
ltibia 29.2129
lfoot -3.66543 -9.90779
ltoes -1.23634
707
root -3.9145 17.5322 -4.182 5.94052 1.94014 0.702364
lowerback 8.47687 2.30406 -3.3055
upperback 2.2574 2.75209 -0.783422
thorax -2.52475 1.38083 0.754011
lowerneck -22.488 -3.36317 -11.8951
upperneck 4.51121 -1.58611 4.27233
head 5.01862 -0.694599 3.08076
rclavicle -2.7482e-014 5.36719e-015
rhumerus -1.34997 34.4823 -97.7983
rradius 50.588
rwrist 0.308221
rhand -29.9289 -3.22917
rfingers 7.12502
rthumb -3.24884 -33.1842
lclavicle -2.7482e-014 5.36719e-015
lhumerus -7.02426 -15.6669 92.5529
lradius 54.5396
lwrist 21.3558
lhand -27.0981 36.8503
lfingers 7.12502
lthumb -0.514876 66.8294
rfemur -9.79211 -11.8663 23.7338
rtibia 44.7543
rfoot -17.6266 7.48093
rtoes -7.80607
lfemur -29.1096 6.60291 -27.9669
ltibia 29.0009
lfoot -3.1722 -9.9307
ltoes 0.00198366
708
root -3.88689 17.5327 -4.24529 6.04063 1.51378 0.865638
lowerback 8.15205 2.37105 -3.29169
upperback 2.22178 2.85514 -0.798178
thorax -2.38434 1.4309 0.732528
lowerneck -22.8402 -3.36359 -11.8162
upperneck 4.61281 -1.54064 4.07436
head 5.09637 -0.685232 3.00804
rclavicle 1.78906e-015 -5.76476e-015
rhumerus -0.803278 34.674 -97.1253
rradius 49.8601
rwrist 3.07672
rhand -29.312 -2.82437
rfingers 7.12502
rthumb -2.65307 -32.7876
lclavicle 1.78906e-015 -5.76476e-015
lhumerus -7.24076 -15.988 91.8084
lradius 54.0802
lwrist 19.5213
lhand -27.1576 35.8548
lfingers 7.12502
lthumb -0.572288 65.8338
rfemur -9.24003 -10.6987 23.6349
rtibia 43.2222
rfoot -18.3463 7.08634
rtoes -5.75879
lfemur -29.3348 6.77177 -28.2676
ltibia 28.817
lfoot -2.82059 -9.79732
ltoes 0.599958
